<?xml version="1.0" encoding="UTF-8"?>
<svg id="Layer_1" xmlns="http://www.w3.org/2000/svg" baseProfile="tiny" version="1.2" viewBox="0 0 16 16">
   <path d="M11.2,2.2c-1.3,0-2.5.6-3.2,1.6-.7-1-1.9-1.6-3.2-1.6-2.1,0-3.9,1.7-3.9,3.9v.4c.4,4.2,6.8,8,7.1,8.2.1,0,1.8-1,3.5-2.6,1.7-1.5,3.4-3.5,3.6-5.6v-.4c0-2.1-1.7-3.9-3.9-3.9ZM13.1,6.3c0,.4-.2.9-.4,1.3h0c-.3.6-.8,1.2-1.3,1.8-1,1-2.2,2-3.4,2.9-1.5-1.1-3.1-2.4-4.1-3.8h0c-.6-.7-.9-1.5-1-2.2v-.2c0-1,.8-1.9,1.9-1.9s1.2.3,1.6.7l1.6,2.3,1.6-2.3c.3-.5.9-.7,1.6-.7,1,0,1.9.8,1.9,1.9v.2Z" fill="#e0e0e0"/>
</svg>