<?xml version="1.0" encoding="UTF-8"?><svg id="uuid-58958c2e-fb0a-436a-9f65-c96a6bc6e3da" xmlns="http://www.w3.org/2000/svg" width="16" height="16" xmlns:xlink="http://www.w3.org/1999/xlink" viewBox="0 0 16 16"><defs><style>.uuid-6a2f7da2-e8ee-4bda-8466-28e2c442c09e{fill:#e0e0e0;}.uuid-fd6ce0f9-0854-446c-a2b1-81b6805dd012{fill:url(#uuid-c581fd97-147c-4dd7-a45c-88fd155d6f10);}</style><linearGradient id="uuid-c581fd97-147c-4dd7-a45c-88fd155d6f10" x1="8.29" y1="7.6" x2="8.29" y2="12.3" gradientUnits="userSpaceOnUse"><stop offset="0" stop-color="#f77656"/><stop offset="1" stop-color="#8c0b0b"/></linearGradient></defs><path class="uuid-6a2f7da2-e8ee-4bda-8466-28e2c442c09e" d="M11.2,2.2c-1.3,0-2.5.6-3.2,1.6-.7-1-1.9-1.6-3.2-1.6-2.1,0-3.9,1.7-3.9,3.9v.4c.4,4.2,6.8,8,7.1,8.2.1-.05,1.78-1.05,3.48-2.56,1.7-1.52,3.42-3.54,3.62-5.64v-.4c0-2.1-1.7-3.9-3.9-3.9ZM13.1,6.3c-.04.42-.19.85-.41,1.29h-.01c-.3.61-.76,1.23-1.3,1.82-.96,1.04-2.18,2.04-3.38,2.89-1.54-1.09-3.12-2.43-4.1-3.77h-.01c-.55-.75-.92-1.51-.99-2.23v-.2c0-1,.8-1.9,1.9-1.9s1.2.3,1.6.7l1.6,2.3,1.6-2.3c.3-.5.9-.7,1.6-.7,1,0,1.9.8,1.9,1.9v.2Z"/><path class="uuid-fd6ce0f9-0854-446c-a2b1-81b6805dd012" d="M12.68,7.6c-.3.6-.76,1.22-1.3,1.81-.96,1.04-2.18,2.04-3.38,2.89-1.54-1.09-3.12-2.43-4.1-3.77.15-.06.92-.58,2.24-.66.39-.02,1.46.09,2.08.2.89.15,1.79.21,2.4.18,1.07-.05,1.92-.55,2.06-.65Z"/></svg>